<svg width="237" height="150" viewBox="0 0 237 150" fill="none" xmlns="http://www.w3.org/2000/svg">
<path d="M139.6 51.82H138.18V55.64H139.6V51.82Z" fill="#F8F9FA"/>
<path d="M108.08 51.83H104.05V55.82H108.08V51.83Z" fill="#F8F9FA"/>
<path d="M66.83 51.93H62.8V55.92H66.83V51.93Z" fill="#F8F9FA"/>
<path d="M66.95 94.05H62.66V97.88H66.95V94.05Z" fill="#F8F9FA"/>
<path d="M108.39 93.9H104.1V97.73H108.39V93.9Z" fill="#F8F9FA"/>
<path fill-rule="evenodd" clip-rule="evenodd" d="M120.78 4.31L116.45 0L111.86 4.31H105.61V42.13H21.55V13.67H0V55.49H2.81V53.75H9.86V55.49H17.93V94.98H21.63V107.72H24.98V140.21H84.3V107.72H96V124.92L96.29 129.48L96.62 134L97.26 136.17L98.67 139.47L101.37 142.62L104.45 145.17L107.77 147.03L111.32 148.52L115.11 149.36L118.82 149.5L123 149.04L126.61 147.48L129.66 145.24L132.52 142.58L135.02 139.85L136.54 136.14L137.32 132.39L137.97 128.16H150.62V94.99H154.55V90.26H154.69L155.93 91.99L159.41 93.32L163.45 91.82L164.24 90.5L170.61 92.14H170.62L174.16 93L180.59 93.83L185.03 94.01H237V76.18H222.38V56.05L186.13 55.32L175.62 56.45V56.43L175.33 56.48L175.03 56.51V56.53L171.31 57.2L168.12 58.03L167.24 54.8L150.77 59.47V15.87H138.54V4.31H120.78ZM149.33 60.62V60.96H149.67H150.78L166.24 56.57L167.12 59.77L171.63 58.59L175.55 57.89L186.21 56.75L220.96 57.45V77.62H235.59V92.58H185.07L180.72 92.4L174.43 91.59L170.97 90.75H170.96L163.56 88.85L162.47 90.66L159.42 91.8L156.86 90.82L155.44 88.84H153.13V93.57H149.2V117.03H138V106.29H121.58V107.72H136.55V119.14H127.83V112.5H122.35V119.14H105.15V115.32H97.42V107.87H106.84V106.29H23.07V93.54H19.37V55.48H21.54V43.55H107.05V5.74H112.43L116.42 1.99L120.19 5.74H124.04V33.88H125.48V27.5H129.69V26.07H125.48V17.3H137.1V26.07H133.85V27.5H149.33V60.62ZM125.48 15.87V5.73H137.1V15.87H125.48ZM11.57 26.85H11.68V26.61H12.34V53.75H12.33V54.05H20.11V15.1H1.44V52.32H10.91V26.61H11.57V26.85ZM138.54 26.07V17.3H149.33V26.07H138.54ZM26.42 138.77V107.71H38.59V138.77H26.42ZM40.02 138.77V107.71H82.87V135.9H58.91V138.77H46.63V135.84H45.19V138.77H40.02ZM123.8 119.13V113.92H126.41V119.13H123.8ZM115.27 147.93L114.9 147.85L118.02 130.24V127.02H124.16V125.59H118.02V120.55H136.55V127.78L135.88 132.11L135.13 135.71L133.76 139.06L131.47 141.56L128.72 144.13L125.87 146.22L122.6 147.63L118.74 148.05L115.27 147.93ZM111.74 147.15L113.51 147.54L116.6 130.12V125.35H111.91L109.55 123.39V120.57H103.73V116.75H97.44V124.88L97.72 129.39L98.03 133.75L98.6 135.69L99.89 138.71L102.37 141.6L105.25 143.99L108.39 145.74L111.74 147.15ZM138 126.72V118.45H149.18V126.72H138ZM110.99 122.71V120.55H116.61V123.91H112.44L110.99 122.71ZM60.34 138.77V137.33H82.86V138.77H60.34Z" fill="#F8F9FA"/>
<path d="M11.95 26.56H0V27.22H11.95V26.56Z" fill="#F8F9FA"/>
<path d="M21.24 26.56H10.62V27.22H21.24V26.56Z" fill="#F8F9FA"/>
<path d="M115.52 33.2H106.23V33.86H115.52V33.2Z" fill="#F8F9FA"/>
<path d="M124.82 30.54H106.23V31.2H124.82V30.54Z" fill="#F8F9FA"/>
<path d="M124.82 27.88H106.23V28.54H124.82V27.88Z" fill="#F8F9FA"/>
<path d="M124.82 25.23H106.23V25.89H124.82V25.23Z" fill="#F8F9FA"/>
<path d="M124.82 22.97H106.23V23.63H124.82V22.97Z" fill="#F8F9FA"/>
<path d="M124.82 20.58H106.23V21.24H124.82V20.58Z" fill="#F8F9FA"/>
<path d="M124.82 17.93H106.23V18.59H124.82V17.93Z" fill="#F8F9FA"/>
<path d="M124.82 15.27H106.23V15.93H124.82V15.27Z" fill="#F8F9FA"/>
<path d="M116.19 15.93H114.86V34.79H116.19V15.93Z" fill="#F8F9FA"/>
<path d="M11.95 29.21H0V29.87H11.95V29.21Z" fill="#F8F9FA"/>
<path d="M21.24 29.21H10.62V29.87H21.24V29.21Z" fill="#F8F9FA"/>
<path d="M11.95 31.87H0V32.53H11.95V31.87Z" fill="#F8F9FA"/>
<path d="M21.24 31.87H10.62V32.53H21.24V31.87Z" fill="#F8F9FA"/>
<path d="M11.95 34.52H0V35.18H11.95V34.52Z" fill="#F8F9FA"/>
<path d="M21.24 34.52H10.62V35.18H21.24V34.52Z" fill="#F8F9FA"/>
<path d="M11.95 37.18H0V37.84H11.95V37.18Z" fill="#F8F9FA"/>
<path d="M21.24 37.18H10.62V37.84H21.24V37.18Z" fill="#F8F9FA"/>
<path d="M11.95 39.84H0V40.5H11.95V39.84Z" fill="#F8F9FA"/>
<path d="M21.24 39.84H10.62V40.5H21.24V39.84Z" fill="#F8F9FA"/>
<path d="M15.93 27.22L16.5 28.22H15.35L15.93 27.22Z" fill="#F8F9FA"/>
<path d="M120.17 15.93L120.75 16.93H119.6L120.17 15.93Z" fill="#F8F9FA"/>
<path d="M110.87 33.2L110.3 32.2H111.45L110.87 33.2Z" fill="#F8F9FA"/>
<path d="M5.97997 39.84L5.40997 38.84H6.55997L5.97997 39.84Z" fill="#F8F9FA"/>
</svg>
