<svg width="237" height="147" viewBox="0 0 237 147" fill="none" xmlns="http://www.w3.org/2000/svg">
<path d="M115.2 68.3H115.1V67.5V66.9H109.4V62.7V61.3H105V53.8V53V52.3V50.7H101.4V52.3H65V50.7H61.4V52.3H48.6L37.3 62.1V93.9H38H61.3V95.5H65V94H101.5V95.6H105.1V94H121.8V92.6V73.9V73.1V72.4H115.2V68.3ZM120.3 73.9V92.6H105H101.4H65H61.4H38.8V62.8L49.2 53.8H61.5H65H101.4H103.5V61.3V62.7H104.9H107.8V68.4H107.9H109.3H113.6V72.5V73.9H115H120.3Z" fill="#F8F9FA"/>
<path d="M18 25.3L17.5 24.2L16.9 25.3H18Z" fill="#F8F9FA"/>
<path d="M9.10002 38.5H7.90002L8.50002 39.5L9.10002 38.5Z" fill="#F8F9FA"/>
<path d="M118.6 15.3L118 14.3L117.4 15.3H118.6Z" fill="#F8F9FA"/>
<path d="M109.7 31.3H108.5L109.1 32.3L109.7 31.3Z" fill="#F8F9FA"/>
<path d="M221.9 7.89999V3.89999V2.49999H220.5H166.3H164.9V3.89999V8.09999H152.9H146.9V5.49999V4.69999V3.99999H117.8L113.8 0.299988L109.6 3.99999H103.8V4.69999V5.39999V40.7H22.4V12.7H21H1.4H0V14.1V54.7V56.1H18.8V91.3V92.7H23.1V103.8V105.2H24.5H94.1V112.6V114V127.7L97.9 136.4L100 139.5L102.9 141.9L106.2 144.2L109.8 145.5L113.3 146.2L117.4 146.4L121.1 145.6L124.7 144.2L127.7 142L130.3 139.2L132.7 135.9L134.1 132.5L134 132.4L135.4 128.4V123.8H145.3H146.7H146.8V122.4H146.7V118.6H162L169.7 128.3V132.9V134.3H171.1H175.5H176.9H210.3H211.7H216.3H217.7V133V127.4H219.9L226.5 116.7L226.2 116.5H226.5V104.6L237 92.2V9.29999V8.69999V7.99999V7.89999H221.9ZM135 5.49999H145.4V25.9H135V5.49999ZM123.4 5.49999H133.6V25.9H123.4V5.49999V5.49999ZM114.4 29.7V27.6H122V29.7H114.4ZM122 30.4V32.5H114.4V30.4H122ZM114.4 26.9V24.9H122V26.9H114.4ZM114.4 24.3V22.3H122V24.3H114.4ZM114.4 21.6V19.6H122V21.6H114.4ZM114.4 19V17H122V19H114.4ZM114.4 16.3V14.3H118H121.9V16.3H114.4ZM105.2 5.49999H110.1L113.6 2.29999L117.1 5.49999H121.9V13.7H105.1L105.2 5.49999ZM105.2 29.7V27.6H113V29.7H105.2ZM113 30.4V32.5H105.2V30.4H113ZM105.2 26.9V24.9H113V26.9H105.2ZM105.2 24.3V22.3H113V24.3H105.2ZM105.2 21.6V19.6H113V21.6H105.2ZM105.2 19V17H113V19H105.2ZM105.2 16.3V14.3H113V16.3H105.2ZM3.2 17.2V54.8H1.4V14.1H21V15.7H4.6H3.2V17.2ZM13.8 36.9V34.9H21V36.9H13.8ZM21 37.5V39.6H13.9V37.5H21ZM13.8 34.2V32.2H21V34.2H13.8ZM13.8 31.5V29.5H21V31.5H13.8ZM13.8 28.9V26.9H21V28.9H13.8ZM13.8 26.2V24.2H17.4H17.5H21V26.2H13.8ZM4.6 23.6V17.2H21V23.6H4.6ZM4.6 36.9V34.9H12.4V36.9H4.6ZM12.4 37.5V39.6H4.6V37.5H12.4ZM4.6 34.2V32.2H12.4V34.2H4.6ZM4.6 31.5V29.5H12.4V31.5H4.6ZM4.6 28.9V26.9H12.4V28.9H4.6ZM4.6 26.2V24.2H12.4V26.2H4.6ZM18.8 52.4V54.8H4.6V40.3H12.4V41.4H13.8V40.3H21V52.4H20.3H19.7H18.8ZM112.8 145L110.2 144.4L106.7 143.1L103.7 141L101.1 138.8L99.4 136.1L95.7 127.5V114.2H102.9V116.2V117.6H104.3H108.2V122.4H108.7H109.6H112.8V145V145ZM109.5 120.9V117.5H114.2V120.9H109.5ZM134 128L132.6 132L132.7 132.1L131.4 135.2L129.1 138.3L126.7 140.9L123.7 143.1L120.5 144.3L117.1 145L114.2 144.9V122.1H115.5H115.6V117.3H120.1H121.5H123.7H125.1V115.9V105.1H134V128V128ZM121.6 116.2V112H123.8V116.2H121.6ZM150.6 117.3H146.8H145.4V118.7V122.5H135.5V105.3V104.6V104.4V103.9H120.1V105.3H123.8V110.5H121.6H120.2V116.1H104.3V112.7H103.7H102.9H95.7V105.3H104.8V103.9H24.5V91.4H23.9H23.1H20.3V53.8H22.4V53.7V42.2H103.8H105.2V40.8V33.1H113H114.4H122H123.4V27.3H145.4V42.3V43.3V43.4V92.5V103.1L147.9 106.8H150.6V117.3V117.3ZM210.3 133H176.9V126.2L179.9 121.1H207.4L210.4 126.2L210.3 133ZM218.9 126H216.3V126.6V127.4V133H211.7V125.8L208.1 119.6H179L175.4 125.8V133H171V127.7L162.7 117.3L164.4 113.3L167.4 114.6L168.7 115.2L170.1 111.8L172 106.5H220.1V109.4H221.5H225.2V115.9L218.9 126ZM168.3 112.4L168.1 112.8L165.1 111.5L165.3 111.1L168.3 112.4ZM165.5 110.5L165.7 109.9L168.7 111.2V111.4L168.5 111.8L165.5 110.5ZM167.9 113.4L167.7 114L166.2 113.3L166.7 112.9L166 112.6L166.1 113.2L164.8 112.6L165 112L167.9 113.4ZM223.3 108.8H221.5V108.2H223L223.3 108.8ZM225.2 108.8H223.4L223.7 108.2H225.2V108.8ZM225.2 107.5H221.5V106.9H225.2V107.5ZM225.2 106.3H221.5V105.8H225.2V106.3ZM235.6 9.49999V91.4L225.2 103.8V104.1V105.1H221.5H170.9L169 110.6L166.1 109.3L166.8 107.7L165.5 107.1L161.3 117.2H152V106.8H155.5L157.3 101L157.1 98.9L151.5 92.1V9.49999H154.5H164.9H166.3V8.79999V8.09999V3.89999H176.9V7.89999H175.3V9.29999H182.1V7.89999H180.5V3.89999H207V7.89999H205.4V9.29999H212.2V7.89999H210.6V3.89999H220.6V9.29999H221.3H222H235.6V9.49999Z" fill="#F8F9FA"/>
</svg>
