<svg width="4" height="5" viewBox="0 0 4 5" fill="none" xmlns="http://www.w3.org/2000/svg">
<path d="M2 0C1.46975 0.000590812 0.961393 0.20774 0.586451 0.576001C0.211508 0.944262 0.00060153 1.44356 0 1.96436C0 3.64523 1.81818 4.91537 1.89545 4.96894C1.92642 4.98919 1.9628 5 2 5C2.0372 5 2.07358 4.98919 2.10455 4.96894C2.18182 4.91537 4 3.64523 4 1.96436C3.9994 1.44356 3.78849 0.944262 3.41355 0.576001C3.03861 0.20774 2.53025 0.000590812 2 0V0ZM2 1.25005C2.14384 1.25005 2.28445 1.29194 2.40405 1.37043C2.52365 1.44892 2.61687 1.56048 2.67191 1.69101C2.72696 1.82153 2.74136 1.96515 2.7133 2.10372C2.68524 2.24228 2.61597 2.36956 2.51426 2.46946C2.41255 2.56936 2.28296 2.63739 2.14188 2.66495C2.00081 2.69251 1.85458 2.67837 1.72168 2.6243C1.58879 2.57024 1.47521 2.47868 1.39529 2.36121C1.31538 2.24374 1.27273 2.10564 1.27273 1.96436C1.27273 1.77491 1.34935 1.59323 1.48574 1.45927C1.62213 1.32531 1.80712 1.25005 2 1.25005V1.25005Z" fill="#44E2F8"/>
</svg>
